<svg width="59" height="60" viewBox="0 0 59 60" fill="none" xmlns="http://www.w3.org/2000/svg">
<path d="M31.3438 55.8125C26.5807 55.8125 22.1058 54.6602 17.9189 52.3555L0 59.5L7.14453 41.5811C4.83984 37.3942 3.6875 32.9193 3.6875 28.1562C3.6875 24.3919 4.41732 20.8101 5.87695 17.4106C7.33659 14.0112 9.30518 11.0728 11.7827 8.59521C14.2603 6.11768 17.1987 4.14909 20.5981 2.68945C23.9976 1.22982 27.5794 0.5 31.3438 0.5C35.1081 0.5 38.6899 1.22982 42.0894 2.68945C45.4888 4.14909 48.4272 6.11768 50.9048 8.59521C53.3823 11.0728 55.3509 14.0112 56.8105 17.4106C58.2702 20.8101 59 24.3919 59 28.1562C59 31.9206 58.2702 35.5024 56.8105 38.9019C55.3509 42.3013 53.3823 45.2397 50.9048 47.7173C48.4272 50.1948 45.4888 52.1634 42.0894 53.623C38.6899 55.0827 35.1081 55.8125 31.3438 55.8125ZM40.5625 33.6875H36.875L34.8008 35.5312C33.0723 35.0703 30.95 33.5819 28.4341 31.0659C25.9181 28.55 24.4297 26.4277 23.9688 24.6992L25.8125 22.625V18.9375C25.8125 18.2845 25.582 17.6315 25.1211 16.9785C24.6602 16.3255 24.1512 15.855 23.5942 15.5669C23.0373 15.2788 22.6436 15.25 22.4131 15.4805L19.7051 18.1885C18.207 19.6865 17.9862 22.02 19.0425 25.189C20.0988 28.3579 22.1154 31.4308 25.0923 34.4077C28.0692 37.3846 31.1421 39.4012 34.311 40.4575C37.48 41.5138 39.8135 41.293 41.3115 39.7949L44.0195 37.0869C44.25 36.8564 44.2212 36.4627 43.9331 35.9058C43.645 35.3488 43.1745 34.8398 42.5215 34.3789C41.8685 33.918 41.2155 33.6875 40.5625 33.6875Z" fill="#BABABA"/>
</svg>
