<?xml version="1.0" encoding="UTF-8"?>
<!DOCTYPE svg PUBLIC "-//W3C//DTD SVG 1.1//EN" "http://www.w3.org/Graphics/SVG/1.1/DTD/svg11.dtd">
<!-- Creator: CorelDRAW 2019 (64-Bit) -->
<svg xmlns="http://www.w3.org/2000/svg" xml:space="preserve" width="32px" height="32px" version="1.1" style="shape-rendering:geometricPrecision; text-rendering:geometricPrecision; image-rendering:optimizeQuality; fill-rule:evenodd; clip-rule:evenodd"
viewBox="0 0 2.79 2.79"
 xmlns:xlink="http://www.w3.org/1999/xlink">
 <defs>
  <style type="text/css">
   <![CDATA[
    .str0 {stroke:#8517AC;stroke-width:0.07;stroke-miterlimit:22.9256}
    .fil2 {fill:none;fill-rule:nonzero}
    .fil0 {fill:#2B2A29}
    .fil1 {fill:#F3C7FF;fill-rule:nonzero}
   ]]>
  </style>
 </defs>
 <g id="Слой_x0020_1">
  <metadata id="CorelCorpID_0Corel-Layer"/>
  <rect class="fil0" width="2.79" height="2.79" rx="0.35" ry="0.35"/>
  <path class="fil1" d="M1.33 2.22c0,0.04 -0.01,0.07 -0.05,0.1 -0.03,0.03 -0.07,0.04 -0.12,0.04l-0.58 0c-0.05,0 -0.1,-0.01 -0.13,-0.04 -0.03,-0.03 -0.05,-0.06 -0.05,-0.1l0 -0.49 0.21 0 0 0.48 0.51 0 0 -0.46 -0.65 -0.65c-0.04,-0.04 -0.07,-0.09 -0.07,-0.14l0 -0.39c0,-0.04 0.02,-0.07 0.05,-0.1 0.03,-0.03 0.08,-0.04 0.13,-0.04l0.58 0c0.05,0 0.09,0.01 0.12,0.04 0.04,0.03 0.05,0.06 0.05,0.1l0 0.45 -0.21 0 0 -0.44 -0.51 0 0 0.41 0.66 0.64c0.04,0.04 0.06,0.09 0.06,0.14l0 0.45z"/>
  <polygon id="1" class="fil1" points="2.47,2.36 2.24,2.36 1.7,1.43 1.7,2.36 1.49,2.36 1.49,0.43 1.7,0.43 1.7,1.3 2.19,0.43 2.42,0.43 2.42,0.44 1.88,1.36 "/>
  <path id="2" class="fil2 str0" d="M1.33 2.22c0,0.04 -0.01,0.07 -0.05,0.1 -0.03,0.03 -0.07,0.04 -0.12,0.04l-0.58 0c-0.05,0 -0.1,-0.01 -0.13,-0.04 -0.03,-0.03 -0.05,-0.06 -0.05,-0.1l0 -0.49 0.21 0 0 0.48 0.51 0 0 -0.46 -0.65 -0.65c-0.04,-0.04 -0.07,-0.09 -0.07,-0.14l0 -0.39c0,-0.04 0.02,-0.07 0.05,-0.1 0.03,-0.03 0.08,-0.04 0.13,-0.04l0.58 0c0.05,0 0.09,0.01 0.12,0.04 0.04,0.03 0.05,0.06 0.05,0.1l0 0.45 -0.21 0 0 -0.44 -0.51 0 0 0.41 0.66 0.64c0.04,0.04 0.06,0.09 0.06,0.14l0 0.45z"/>
  <polygon id="3" class="fil2 str0" points="2.47,2.36 2.24,2.36 1.7,1.43 1.7,2.36 1.49,2.36 1.49,0.43 1.7,0.43 1.7,1.3 2.19,0.43 2.42,0.43 2.42,0.44 1.88,1.36 "/>
 </g>
</svg>
