<svg width="67" height="52" viewBox="0 0 67 52" fill="none" xmlns="http://www.w3.org/2000/svg">
<path d="M56.7553 4.3369C52.3614 2.28427 47.713 0.82578 42.9329 0C42.3375 1.07475 41.6418 2.5203 41.1621 3.67031C36.0084 2.89658 30.902 2.89658 25.8429 3.67031C25.3635 2.52056 24.6521 1.07475 24.0512 0C19.2665 0.826161 14.6141 2.28836 10.2181 4.34762C1.47038 17.5459 -0.901055 30.4161 0.284531 43.1041C6.08657 47.43 11.7093 50.058 17.2374 51.7776C18.6112 49.8913 19.8257 47.8942 20.8682 45.807C18.8834 45.0526 16.97 44.1228 15.1507 43.0288C15.6294 42.6745 16.0969 42.3053 16.5524 41.9217C27.5766 47.0699 39.5549 47.0699 50.4476 41.9217C50.9051 42.3028 51.3725 42.6719 51.8491 43.0288C50.0269 44.1257 48.11 45.0573 46.1212 45.8125C47.1696 47.9082 48.3819 49.9072 49.752 51.7829C55.2852 50.0635 60.9132 47.4355 66.7153 43.1041C68.1066 28.3957 64.3389 15.6434 56.7553 4.33664V4.3369ZM22.3702 35.3012C19.0608 35.3012 16.3467 32.2165 16.3467 28.4602C16.3467 24.7039 19.0029 21.614 22.3702 21.614C25.7377 21.614 28.4515 24.6984 28.3936 28.4602C28.3989 32.2165 25.7377 35.3012 22.3702 35.3012ZM44.6296 35.3012C41.3202 35.3012 38.6064 32.2165 38.6064 28.4602C38.6064 24.7039 41.2624 21.614 44.6296 21.614C47.9972 21.614 50.7109 24.6984 50.6531 28.4602C50.6531 32.2165 47.9972 35.3012 44.6296 35.3012Z" fill="#BABABA"/>
</svg>
