<svg width="66" height="64" viewBox="0 0 66 64" fill="none" xmlns="http://www.w3.org/2000/svg">
<path fill-rule="evenodd" clip-rule="evenodd" d="M33 0C51.2325 0 66 14.6822 66 32.8094C66 47.3276 56.5538 59.5901 43.4363 63.9373C41.7863 64.2244 41.1675 63.2401 41.1675 62.3789C41.1675 61.5997 41.2087 59.0159 41.2087 56.2681C49.5 57.7856 51.645 54.2585 52.305 52.413C52.6762 51.4697 54.285 48.5579 55.6875 47.7787C56.8425 47.1635 58.4925 45.6461 55.7288 45.6051C53.13 45.5641 51.2738 47.9837 50.655 48.968C47.685 53.9305 42.9412 52.5361 41.0438 51.6748C40.755 49.5422 39.8888 48.1068 38.94 47.2865C46.2825 46.4663 53.955 43.6365 53.955 31.0869C53.955 27.5189 52.6762 24.566 50.5725 22.2694C50.9025 21.4491 52.0575 18.0862 50.2425 13.5749C50.2425 13.5749 47.4788 12.7136 41.1675 16.9379C38.5275 16.1996 35.7225 15.8305 32.9175 15.8305C30.1125 15.8305 27.3075 16.1996 24.6675 16.9379C18.3563 12.6726 15.5925 13.5749 15.5925 13.5749C13.7775 18.0862 14.9325 21.4491 15.2625 22.2694C13.1587 24.566 11.88 27.4779 11.88 31.0869C11.88 43.6775 19.5938 46.4663 26.9362 47.2865C25.74 48.3118 24.7087 50.2804 24.7087 53.3563C24.7087 57.7445 24.75 61.2716 24.75 62.3789C24.75 63.2401 24.1313 64.2654 22.4813 63.9373C15.9303 61.7383 10.2378 57.5523 6.20493 51.9684C2.17209 46.3844 0.00197601 39.6838 0 32.8094C0 14.6822 14.7675 0 33 0Z" fill="#BABABA"/>
</svg>
