<svg width="75" height="44" viewBox="0 0 75 44" fill="none" xmlns="http://www.w3.org/2000/svg">
<path fill-rule="evenodd" clip-rule="evenodd" d="M73.2797 3.41171C73.7985 1.73471 73.2797 0.5 70.7954 0.5H62.5924C60.505 0.5 59.5425 1.56579 59.0206 2.74214C59.0206 2.74214 54.8489 12.5584 48.9396 18.9347C47.0271 20.7837 46.1584 21.3704 45.1147 21.3704C44.5928 21.3704 43.8085 20.7837 43.8085 19.1036V3.41171C43.8085 1.39686 43.2335 0.5 41.496 0.5H28.5963C27.2932 0.5 26.5088 1.43371 26.5088 2.32136C26.5088 4.22871 29.465 4.671 29.7681 10.0399V21.7051C29.7681 24.2636 29.29 24.7274 28.2463 24.7274C25.4651 24.7274 18.6996 14.8651 14.6841 3.58064C13.906 1.38457 13.1185 0.5 11.0216 0.5H2.81244C0.46874 0.5 0 1.56579 0 2.74214C0 4.83686 2.78119 15.2429 12.9529 29.0059C19.734 38.4045 29.2806 43.5 37.9773 43.5C43.1928 43.5 43.8366 42.3697 43.8366 40.4194V33.3151C43.8366 31.0515 44.3303 30.6 45.9834 30.6C47.2021 30.6 49.2865 31.1897 54.1551 35.7201C59.7175 41.092 60.6331 43.5 63.7643 43.5H71.9672C74.3109 43.5 75.4859 42.3697 74.8109 40.1337C74.0672 37.91 71.411 34.6819 67.8892 30.8519C65.9767 28.6711 63.1081 26.3215 62.2362 25.1451C61.0206 23.6371 61.3675 22.9644 62.2362 21.6222C62.2362 21.6222 72.236 8.02807 73.2766 3.41171H73.2797Z" fill="#BABABA"/>
</svg>
